<svg xmlns="http://www.w3.org/2000/svg" xmlns:xlink="http://www.w3.org/1999/xlink" width="255" zoomAndPan="magnify" viewBox="0 0 191.25 374.999989" height="500" preserveAspectRatio="xMidYMid meet" version="1.0"><defs><g/><clipPath id="e905dcab44"><path d="M 7.808594 30.234375 L 180 30.234375 L 180 339 L 7.808594 339 Z M 7.808594 30.234375 " clip-rule="nonzero"/></clipPath><clipPath id="1d8d8e4bec"><path d="M 7.808594 75 L 185 75 L 185 88 L 7.808594 88 Z M 7.808594 75 " clip-rule="nonzero"/></clipPath><clipPath id="cc73294e84"><path d="M 7.808594 281 L 185 281 L 185 293 L 7.808594 293 Z M 7.808594 281 " clip-rule="nonzero"/></clipPath><clipPath id="431e88a892"><path d="M 7.808594 30.234375 L 190.503906 30.234375 L 190.503906 361.1875 L 7.808594 361.1875 Z M 7.808594 30.234375 " clip-rule="nonzero"/></clipPath><clipPath id="c538920443"><path d="M 156 349 L 180 349 L 180 361.1875 L 156 361.1875 Z M 156 349 " clip-rule="nonzero"/></clipPath><clipPath id="7c53778645"><path d="M 179 349 L 190.503906 349 L 190.503906 361.1875 L 179 361.1875 Z M 179 349 " clip-rule="nonzero"/></clipPath><clipPath id="e768e271e3"><path d="M 19.34375 6 L 43 6 L 43 38.617188 L 19.34375 38.617188 Z M 19.34375 6 " clip-rule="nonzero"/></clipPath><clipPath id="74b968948b"><path d="M 43 22 L 49.679688 22 L 49.679688 38 L 43 38 Z M 43 22 " clip-rule="nonzero"/></clipPath></defs><g clip-path="url(#e905dcab44)"><path fill="#e3e3e3" d="M 179.050781 315.535156 C 179.050781 328.089844 168.777344 338.359375 156.21875 338.359375 L 30.640625 338.359375 C 18.085938 338.359375 7.808594 328.089844 7.808594 315.535156 L 7.808594 53.0625 C 7.808594 40.507812 18.085938 30.238281 30.640625 30.238281 L 156.21875 30.238281 C 168.777344 30.238281 179.050781 40.507812 179.050781 53.0625 Z M 179.050781 315.535156 " fill-opacity="1" fill-rule="nonzero"/></g><path fill="#ffffff" d="M 19.226562 81.589844 L 167.636719 81.589844 L 167.636719 287.007812 L 19.226562 287.007812 Z M 19.226562 81.589844 " fill-opacity="1" fill-rule="nonzero"/><path stroke-linecap="butt" transform="matrix(5.708084, 0, 0, 5.705977, 7.80952, 13.119216)" fill="none" stroke-linejoin="miter" d="M 11.999678 52.999855 L 17.99994 52.999855 " stroke="#2b2b2b" stroke-width="2" stroke-opacity="1" stroke-miterlimit="10"/><path stroke-linecap="butt" transform="matrix(5.708084, 0, 0, 5.705977, 7.80952, 13.119216)" fill="none" stroke-linejoin="miter" d="M 13.999993 7.000254 L 20.000256 7.000254 " stroke="#2b2b2b" stroke-width="2" stroke-opacity="1" stroke-miterlimit="10"/><path stroke-linecap="butt" transform="matrix(5.708084, 0, 0, 5.705977, 7.80952, 13.119216)" fill="none" stroke-linejoin="miter" d="M 10.000047 7.000254 L 11.999678 7.000254 " stroke="#2b2b2b" stroke-width="2" stroke-opacity="1" stroke-miterlimit="10"/><g clip-path="url(#1d8d8e4bec)"><path stroke-linecap="butt" transform="matrix(5.708084, 0, 0, 5.705977, 7.80952, 13.119216)" fill="none" stroke-linejoin="miter" d="M -0.000162246 11.999809 L 29.99978 11.999809 " stroke="#2b2b2b" stroke-width="2" stroke-opacity="1" stroke-miterlimit="10"/></g><g clip-path="url(#cc73294e84)"><path stroke-linecap="butt" transform="matrix(5.708084, 0, 0, 5.705977, 7.80952, 13.119216)" fill="none" stroke-linejoin="miter" d="M -0.000162246 48.0003 L 29.99978 48.0003 " stroke="#2b2b2b" stroke-width="2" stroke-opacity="1" stroke-miterlimit="10"/></g><path fill="#e3e3e3" d="M 30.628906 98.707031 L 156.207031 98.707031 L 156.207031 121.53125 L 30.628906 121.53125 Z M 30.628906 98.707031 " fill-opacity="1" fill-rule="nonzero"/><path fill="#e3e3e3" d="M 30.628906 132.945312 L 53.460938 132.945312 L 53.460938 235.652344 L 30.628906 235.652344 Z M 30.628906 132.945312 " fill-opacity="1" fill-rule="nonzero"/><path fill="#ff661a" d="M 64.902344 132.945312 L 156.230469 132.945312 L 156.230469 235.652344 L 64.902344 235.652344 Z M 64.902344 132.945312 " fill-opacity="1" fill-rule="nonzero"/><path fill="#ff661a" d="M 30.628906 247.0625 L 156.207031 247.0625 L 156.207031 269.886719 L 30.628906 269.886719 Z M 30.628906 247.0625 " fill-opacity="1" fill-rule="nonzero"/><g clip-path="url(#431e88a892)"><path stroke-linecap="square" transform="matrix(5.708084, 0, 0, 5.705977, 7.80952, 13.119216)" fill="none" stroke-linejoin="miter" d="M 21.002124 34.999952 L 21.002124 28.000027 C 21.002124 27.231918 20.709228 26.465178 20.122752 25.87917 C 19.53696 25.293161 18.769819 25.000157 18.001993 25.000157 C 17.234168 25.000157 16.467026 25.293161 15.881234 25.87917 C 15.294758 26.465178 15.001862 27.231918 15.001862 28.000027 L 15.001862 34.999952 " stroke="#2b2b2b" stroke-width="2" stroke-opacity="1" stroke-miterlimit="10"/></g><path stroke-linecap="butt" transform="matrix(5.708084, 0, 0, 5.705977, 7.80952, 13.119216)" fill="none" stroke-linejoin="miter" d="M 15.001862 29.999712 L 21.002124 29.999712 " stroke="#2b2b2b" stroke-width="2" stroke-opacity="1" stroke-miterlimit="10"/><g clip-path="url(#c538920443)"><path stroke-linecap="butt" transform="matrix(5.708084, 0, 0, 5.705977, 7.80952, 13.119216)" fill="none" stroke-linejoin="miter" d="M 27.000334 59.99978 L 28.999965 59.99978 " stroke="#2b2b2b" stroke-width="2" stroke-opacity="1" stroke-miterlimit="10"/></g><g clip-path="url(#7c53778645)"><path stroke-linecap="butt" transform="matrix(5.708084, 0, 0, 5.705977, 7.80952, 13.119216)" fill="none" stroke-linejoin="miter" d="M 31.00028 59.99978 L 32.999911 59.99978 " stroke="#2b2b2b" stroke-width="2" stroke-opacity="1" stroke-miterlimit="10"/></g><g clip-path="url(#e768e271e3)"><path fill="#000000" d="M 20.566406 24.203125 C 20.5 23.679688 19.539062 22.898438 19.507812 22.367188 C 19.453125 21.40625 20.742188 19.519531 21.625 19.15625 C 23.03125 18.582031 30.179688 18.851562 30.179688 18.851562 C 30.875 17.617188 28.933594 14.570312 28.398438 13.253906 C 27.613281 11.328125 27.746094 8.769531 28.738281 7.457031 C 29.949219 5.851562 32.175781 5.742188 32.21875 6.460938 C 32.550781 11.671875 33.539062 13.117188 34.859375 14.148438 C 35.652344 14.765625 36.347656 15.308594 36.714844 16.25 C 38.964844 22.046875 40.636719 23.386719 41.589844 23.386719 L 42.222656 23.386719 L 42.222656 36.5625 L 35.550781 37.816406 C 35.550781 37.816406 27.261719 38.609375 24.652344 37.816406 C 23.832031 37.566406 22.414062 36.320312 22.078125 35.523438 C 21.886719 35.0625 22.152344 33.976562 21.925781 33.535156 C 21.59375 32.878906 20.1875 32.054688 20.1875 31.164062 C 20.1875 30.527344 20.921875 29.425781 20.867188 28.792969 C 20.816406 28.15625 19.503906 27.285156 19.507812 26.652344 C 19.507812 25.984375 20.652344 24.867188 20.566406 24.203125 Z M 20.566406 24.203125 " fill-opacity="1" fill-rule="nonzero"/></g><g clip-path="url(#74b968948b)"><path fill="#000000" d="M 43.496094 36.242188 C 43.496094 36.949219 44.066406 37.527344 44.769531 37.527344 L 48.582031 37.527344 C 49.285156 37.527344 49.855469 36.949219 49.855469 36.242188 L 49.855469 24.03125 C 49.855469 23.320312 49.285156 22.746094 48.582031 22.746094 L 44.769531 22.746094 C 44.066406 22.746094 43.496094 23.320312 43.496094 24.03125 Z M 43.496094 36.242188 " fill-opacity="1" fill-rule="nonzero"/></g><g fill="#000000" fill-opacity="1"><g transform="translate(79.656944, 27.649957)"><g><path d="M 2.359375 -0.03125 L 0.0625 -4.59375 C 0.0507812 -4.625 0.0507812 -4.65625 0.0625 -4.6875 C 0.0820312 -4.71875 0.113281 -4.734375 0.15625 -4.734375 L 0.78125 -4.734375 C 0.832031 -4.734375 0.867188 -4.722656 0.890625 -4.703125 C 0.910156 -4.679688 0.9375 -4.644531 0.96875 -4.59375 L 2.90625 -0.609375 L 2.609375 -0.03125 C 2.585938 0.0078125 2.566406 0.0390625 2.546875 0.0625 C 2.535156 0.0820312 2.515625 0.09375 2.484375 0.09375 L 2.46875 0.09375 C 2.445312 0.09375 2.425781 0.0820312 2.40625 0.0625 C 2.394531 0.0390625 2.378906 0.0078125 2.359375 -0.03125 Z M 4.890625 -4.59375 L 2.984375 -0.734375 L 2.5625 -1.59375 L 3.984375 -4.59375 C 4.035156 -4.6875 4.101562 -4.734375 4.1875 -4.734375 L 4.796875 -4.734375 C 4.847656 -4.734375 4.878906 -4.71875 4.890625 -4.6875 C 4.910156 -4.65625 4.910156 -4.625 4.890625 -4.59375 Z M 4.890625 -4.59375 "/></g></g></g><g fill="#000000" fill-opacity="1"><g transform="translate(84.604739, 27.649957)"><g><path d="M 1.328125 0 L 0.84375 0 C 0.78125 0 0.738281 -0.0078125 0.71875 -0.03125 C 0.707031 -0.0507812 0.703125 -0.0859375 0.703125 -0.140625 L 0.703125 -3.296875 C 0.703125 -3.347656 0.707031 -3.382812 0.71875 -3.40625 C 0.738281 -3.425781 0.78125 -3.4375 0.84375 -3.4375 L 1.328125 -3.4375 C 1.378906 -3.4375 1.414062 -3.425781 1.4375 -3.40625 C 1.457031 -3.382812 1.46875 -3.347656 1.46875 -3.296875 L 1.46875 -0.140625 C 1.46875 -0.0859375 1.457031 -0.0507812 1.4375 -0.03125 C 1.414062 -0.0078125 1.378906 0 1.328125 0 Z M 1.078125 -5 C 1.203125 -5 1.3125 -4.953125 1.40625 -4.859375 C 1.5 -4.765625 1.546875 -4.648438 1.546875 -4.515625 C 1.546875 -4.390625 1.5 -4.28125 1.40625 -4.1875 C 1.3125 -4.09375 1.203125 -4.046875 1.078125 -4.046875 C 0.941406 -4.046875 0.828125 -4.09375 0.734375 -4.1875 C 0.648438 -4.28125 0.609375 -4.390625 0.609375 -4.515625 C 0.609375 -4.648438 0.648438 -4.765625 0.734375 -4.859375 C 0.828125 -4.953125 0.941406 -5 1.078125 -5 Z M 1.078125 -5 "/></g></g></g><g fill="#000000" fill-opacity="1"><g transform="translate(86.754193, 27.649957)"><g><path d="M 1.859375 0.078125 C 1.546875 0.078125 1.269531 -0.00390625 1.03125 -0.171875 C 0.800781 -0.335938 0.617188 -0.554688 0.484375 -0.828125 C 0.359375 -1.097656 0.296875 -1.394531 0.296875 -1.71875 C 0.296875 -2.050781 0.359375 -2.351562 0.484375 -2.625 C 0.617188 -2.894531 0.800781 -3.109375 1.03125 -3.265625 C 1.269531 -3.429688 1.546875 -3.515625 1.859375 -3.515625 C 2.054688 -3.515625 2.242188 -3.472656 2.421875 -3.390625 C 2.609375 -3.304688 2.753906 -3.195312 2.859375 -3.0625 L 2.859375 -2.265625 C 2.765625 -2.453125 2.644531 -2.59375 2.5 -2.6875 C 2.351562 -2.78125 2.191406 -2.828125 2.015625 -2.828125 C 1.835938 -2.828125 1.675781 -2.773438 1.53125 -2.671875 C 1.382812 -2.578125 1.269531 -2.441406 1.1875 -2.265625 C 1.101562 -2.097656 1.0625 -1.914062 1.0625 -1.71875 C 1.0625 -1.507812 1.101562 -1.320312 1.1875 -1.15625 C 1.269531 -0.988281 1.382812 -0.851562 1.53125 -0.75 C 1.675781 -0.65625 1.835938 -0.609375 2.015625 -0.609375 C 2.160156 -0.609375 2.3125 -0.648438 2.46875 -0.734375 C 2.625 -0.816406 2.753906 -0.957031 2.859375 -1.15625 L 2.859375 -0.3125 C 2.742188 -0.195312 2.597656 -0.101562 2.421875 -0.03125 C 2.242188 0.0390625 2.054688 0.078125 1.859375 0.078125 Z M 3.75 -4.84375 L 3.75 -0.140625 C 3.75 -0.0859375 3.738281 -0.0507812 3.71875 -0.03125 C 3.695312 -0.0078125 3.660156 0 3.609375 0 L 3.375 0 C 3.28125 0 3.191406 -0.0351562 3.109375 -0.109375 L 2.984375 -0.296875 L 2.984375 -4.84375 C 2.984375 -4.90625 2.988281 -4.945312 3 -4.96875 C 3.019531 -4.988281 3.0625 -5 3.125 -5 L 3.609375 -5 C 3.660156 -5 3.695312 -4.988281 3.71875 -4.96875 C 3.738281 -4.945312 3.75 -4.90625 3.75 -4.84375 Z M 3.75 -4.84375 "/></g></g></g><g fill="#000000" fill-opacity="1"><g transform="translate(91.059858, 27.649957)"><g><path d="M 3.265625 -0.828125 L 3.453125 -0.59375 C 3.492188 -0.550781 3.515625 -0.515625 3.515625 -0.484375 C 3.523438 -0.460938 3.515625 -0.4375 3.484375 -0.40625 C 3.316406 -0.25 3.109375 -0.128906 2.859375 -0.046875 C 2.609375 0.0351562 2.359375 0.078125 2.109375 0.078125 C 1.765625 0.078125 1.453125 0 1.171875 -0.15625 C 0.898438 -0.320312 0.6875 -0.539062 0.53125 -0.8125 C 0.375 -1.082031 0.296875 -1.382812 0.296875 -1.71875 C 0.296875 -2.03125 0.367188 -2.320312 0.515625 -2.59375 C 0.671875 -2.863281 0.875 -3.082031 1.125 -3.25 C 1.382812 -3.414062 1.675781 -3.503906 2 -3.515625 L 2 -2.875 C 1.726562 -2.863281 1.503906 -2.75 1.328125 -2.53125 C 1.160156 -2.320312 1.078125 -2.054688 1.078125 -1.734375 L 1.078125 -1.6875 C 1.078125 -1.476562 1.125 -1.289062 1.21875 -1.125 C 1.3125 -0.957031 1.4375 -0.828125 1.59375 -0.734375 C 1.75 -0.640625 1.925781 -0.59375 2.125 -0.59375 C 2.25 -0.59375 2.390625 -0.609375 2.546875 -0.640625 C 2.703125 -0.679688 2.867188 -0.75 3.046875 -0.84375 C 3.078125 -0.851562 3.097656 -0.863281 3.109375 -0.875 C 3.128906 -0.882812 3.148438 -0.890625 3.171875 -0.890625 C 3.203125 -0.890625 3.234375 -0.867188 3.265625 -0.828125 Z M 3.75 -1.609375 C 3.75 -1.554688 3.738281 -1.519531 3.71875 -1.5 C 3.707031 -1.476562 3.675781 -1.46875 3.625 -1.46875 L 1.21875 -1.46875 C 1.1875 -1.632812 1.1875 -1.800781 1.21875 -1.96875 L 2.96875 -1.96875 C 2.957031 -2.101562 2.914062 -2.238281 2.84375 -2.375 C 2.78125 -2.507812 2.6875 -2.625 2.5625 -2.71875 C 2.445312 -2.820312 2.296875 -2.875 2.109375 -2.875 L 2.109375 -3.515625 C 2.472656 -3.503906 2.773438 -3.410156 3.015625 -3.234375 C 3.265625 -3.054688 3.445312 -2.820312 3.5625 -2.53125 C 3.6875 -2.25 3.75 -1.941406 3.75 -1.609375 Z M 3.75 -1.609375 "/></g></g></g><g fill="#000000" fill-opacity="1"><g transform="translate(95.061358, 27.649957)"><g><path d="M 2.140625 -2.828125 L 2.140625 -3.515625 C 2.460938 -3.503906 2.753906 -3.414062 3.015625 -3.25 C 3.273438 -3.082031 3.484375 -2.863281 3.640625 -2.59375 C 3.796875 -2.332031 3.875 -2.039062 3.875 -1.71875 C 3.875 -1.40625 3.796875 -1.113281 3.640625 -0.84375 C 3.484375 -0.570312 3.273438 -0.351562 3.015625 -0.1875 C 2.753906 -0.03125 2.460938 0.0546875 2.140625 0.078125 L 2.140625 -0.609375 C 2.316406 -0.617188 2.476562 -0.671875 2.625 -0.765625 C 2.769531 -0.867188 2.882812 -1.003906 2.96875 -1.171875 C 3.0625 -1.335938 3.109375 -1.519531 3.109375 -1.71875 C 3.109375 -1.914062 3.0625 -2.097656 2.96875 -2.265625 C 2.882812 -2.429688 2.769531 -2.5625 2.625 -2.65625 C 2.476562 -2.757812 2.316406 -2.816406 2.140625 -2.828125 Z M 2.015625 -0.609375 L 2.015625 0.078125 C 1.703125 0.0546875 1.410156 -0.03125 1.140625 -0.1875 C 0.878906 -0.351562 0.671875 -0.566406 0.515625 -0.828125 C 0.367188 -1.097656 0.296875 -1.394531 0.296875 -1.71875 C 0.296875 -2.039062 0.367188 -2.335938 0.515625 -2.609375 C 0.671875 -2.878906 0.878906 -3.09375 1.140625 -3.25 C 1.410156 -3.414062 1.703125 -3.503906 2.015625 -3.515625 L 2.015625 -2.828125 C 1.847656 -2.816406 1.691406 -2.765625 1.546875 -2.671875 C 1.398438 -2.578125 1.28125 -2.445312 1.1875 -2.28125 C 1.101562 -2.113281 1.0625 -1.925781 1.0625 -1.71875 C 1.0625 -1.519531 1.101562 -1.335938 1.1875 -1.171875 C 1.269531 -1.003906 1.382812 -0.867188 1.53125 -0.765625 C 1.6875 -0.671875 1.847656 -0.617188 2.015625 -0.609375 Z M 2.015625 -0.609375 "/></g></g></g><g fill="#000000" fill-opacity="1"><g transform="translate(99.21832, 27.649957)"><g/></g></g><g fill="#000000" fill-opacity="1"><g transform="translate(100.92842, 27.649957)"><g><path d="M 0.78125 0 L 0.15625 0 C 0.113281 0 0.0820312 -0.015625 0.0625 -0.046875 C 0.0507812 -0.078125 0.0507812 -0.109375 0.0625 -0.140625 L 2.359375 -4.703125 C 2.378906 -4.742188 2.394531 -4.773438 2.40625 -4.796875 C 2.425781 -4.828125 2.445312 -4.84375 2.46875 -4.84375 L 2.484375 -4.84375 C 2.515625 -4.84375 2.535156 -4.828125 2.546875 -4.796875 C 2.566406 -4.773438 2.585938 -4.742188 2.609375 -4.703125 L 4.015625 -1.890625 L 3.21875 -1.890625 L 2.484375 -3.453125 L 2.46875 -3.453125 L 0.96875 -0.140625 C 0.9375 -0.0859375 0.910156 -0.0507812 0.890625 -0.03125 C 0.867188 -0.0078125 0.832031 0 0.78125 0 Z M 4.796875 0 L 4.1875 0 C 4.132812 0 4.09375 -0.0078125 4.0625 -0.03125 C 4.039062 -0.0507812 4.015625 -0.0859375 3.984375 -0.140625 L 3.546875 -1.0625 L 1.53125 -1.0625 L 1.84375 -1.765625 L 4.078125 -1.765625 L 4.890625 -0.140625 C 4.910156 -0.109375 4.910156 -0.078125 4.890625 -0.046875 C 4.878906 -0.015625 4.847656 0 4.796875 0 Z M 4.796875 0 "/></g></g></g></svg>