<svg xmlns="http://www.w3.org/2000/svg" xmlns:xlink="http://www.w3.org/1999/xlink" width="255" zoomAndPan="magnify" viewBox="0 0 191.25 374.999989" height="500" preserveAspectRatio="xMidYMid meet" version="1.0"><defs><g/><clipPath id="8b2c71e39c"><path d="M 11 33.984375 L 181.21875 33.984375 L 181.21875 341 L 11 341 Z M 11 33.984375 " clip-rule="nonzero"/></clipPath><clipPath id="4314670f89"><path d="M 5 79 L 181.21875 79 L 181.21875 91 L 5 91 Z M 5 79 " clip-rule="nonzero"/></clipPath><clipPath id="0caea7e041"><path d="M 5 283 L 181.21875 283 L 181.21875 296 L 5 296 Z M 5 283 " clip-rule="nonzero"/></clipPath><clipPath id="f04f709530"><path d="M 0 33.984375 L 181.21875 33.984375 L 181.21875 349 L 0 349 Z M 0 33.984375 " clip-rule="nonzero"/></clipPath><clipPath id="4e415da342"><path d="M 0 33.984375 L 181.21875 33.984375 L 181.21875 363.441406 L 0 363.441406 Z M 0 33.984375 " clip-rule="nonzero"/></clipPath><clipPath id="816d8bc223"><path d="M 0 352 L 12 352 L 12 363.441406 L 0 363.441406 Z M 0 352 " clip-rule="nonzero"/></clipPath><clipPath id="57e4148668"><path d="M 11 352 L 34 352 L 34 363.441406 L 11 363.441406 Z M 11 352 " clip-rule="nonzero"/></clipPath></defs><g clip-path="url(#8b2c71e39c)"><path fill="#e3e3e3" d="M 181.21875 318 C 181.21875 330.496094 171.007812 340.71875 158.527344 340.71875 L 33.71875 340.71875 C 21.238281 340.71875 11.027344 330.496094 11.027344 318 L 11.027344 56.707031 C 11.027344 44.210938 21.238281 33.988281 33.71875 33.988281 L 158.527344 33.988281 C 171.007812 33.988281 181.21875 44.210938 181.21875 56.707031 Z M 181.21875 318 " fill-opacity="1" fill-rule="nonzero"/></g><path fill="#ffffff" d="M 22.375 85.109375 L 169.871094 85.109375 L 169.871094 289.597656 L 22.375 289.597656 Z M 22.375 85.109375 " fill-opacity="1" fill-rule="nonzero"/><path stroke-linecap="butt" transform="matrix(5.673065, 0, 0, 5.680203, -181.857071, 16.947509)" fill="none" stroke-linejoin="miter" d="M 46.000273 53.000303 L 51.999703 53.000303 " stroke="#2b2b2b" stroke-width="2" stroke-opacity="1" stroke-miterlimit="10"/><path stroke-linecap="butt" transform="matrix(5.673065, 0, 0, 5.680203, -181.857071, 16.947509)" fill="none" stroke-linejoin="miter" d="M 47.999854 6.999665 L 53.999972 6.999665 " stroke="#2b2b2b" stroke-width="2" stroke-opacity="1" stroke-miterlimit="10"/><path stroke-linecap="butt" transform="matrix(5.673065, 0, 0, 5.680203, -181.857071, 16.947509)" fill="none" stroke-linejoin="miter" d="M 44.000004 6.999665 L 46.000273 6.999665 " stroke="#2b2b2b" stroke-width="2" stroke-opacity="1" stroke-miterlimit="10"/><g clip-path="url(#4314670f89)"><path stroke-linecap="butt" transform="matrix(5.673065, 0, 0, 5.680203, -181.857071, 16.947509)" fill="none" stroke-linejoin="miter" d="M 34.000036 11.999899 L 63.99994 11.999899 " stroke="#2b2b2b" stroke-width="2" stroke-opacity="1" stroke-miterlimit="10"/></g><g clip-path="url(#0caea7e041)"><path stroke-linecap="butt" transform="matrix(5.673065, 0, 0, 5.680203, -181.857071, 16.947509)" fill="none" stroke-linejoin="miter" d="M 34.000036 48.000069 L 63.99994 48.000069 " stroke="#2b2b2b" stroke-width="2" stroke-opacity="1" stroke-miterlimit="10"/></g><path fill="#54e3e3" d="M 33.730469 102.152344 L 158.539062 102.152344 L 158.539062 124.871094 L 33.730469 124.871094 Z M 33.730469 102.152344 " fill-opacity="1" fill-rule="nonzero"/><path fill="#e3e3e3" d="M 135.847656 136.230469 L 158.539062 136.230469 L 158.539062 238.476562 L 135.847656 238.476562 Z M 135.847656 136.230469 " fill-opacity="1" fill-rule="nonzero"/><path fill="#54e3e3" d="M 33.707031 136.230469 L 124.476562 136.230469 L 124.476562 238.476562 L 33.707031 238.476562 Z M 33.707031 136.230469 " fill-opacity="1" fill-rule="nonzero"/><path fill="#e3e3e3" d="M 33.730469 249.835938 L 158.539062 249.835938 L 158.539062 272.558594 L 33.730469 272.558594 Z M 33.730469 249.835938 " fill-opacity="1" fill-rule="nonzero"/><g clip-path="url(#f04f709530)"><path stroke-linecap="butt" transform="matrix(5.673065, 0, 0, 5.680203, -181.857071, 16.947509)" fill="none" stroke-linejoin="miter" d="M 48.998267 26.999913 C 48.998267 26.488267 48.802716 25.97731 48.412302 25.586011 C 48.021199 25.194712 47.510287 25.000094 46.997998 25.000094 L 42.998148 25.000094 L 42.998148 30.000328 L 46.997998 30.000328 C 47.510287 30.000328 48.021199 29.805023 48.412302 29.413724 C 48.802716 29.023801 48.998267 28.512155 48.998267 27.999822 Z M 48.998267 26.999913 " stroke="#2b2b2b" stroke-width="2" stroke-opacity="1" stroke-miterlimit="10"/></g><g clip-path="url(#4e415da342)"><path stroke-linecap="butt" transform="matrix(5.673065, 0, 0, 5.680203, -181.857071, 16.947509)" fill="none" stroke-linejoin="miter" d="M 48.998267 32.000147 C 48.998267 31.487813 48.802716 30.976856 48.412302 30.586245 C 48.021199 30.194946 47.510287 30.000328 46.997998 30.000328 L 42.998148 30.000328 L 42.998148 34.999874 L 46.997998 34.999874 C 47.510287 34.999874 48.021199 34.805256 48.412302 34.413958 C 48.802716 34.024034 48.998267 33.511701 48.998267 33.000056 Z M 48.998267 32.000147 " stroke="#2b2b2b" stroke-width="2" stroke-opacity="1" stroke-miterlimit="10"/></g><g clip-path="url(#816d8bc223)"><path stroke-linecap="butt" transform="matrix(5.673065, 0, 0, 5.680203, -181.857071, 16.947509)" fill="none" stroke-linejoin="miter" d="M 30.999977 59.999668 L 33.000246 59.999668 " stroke="#2b2b2b" stroke-width="2" stroke-opacity="1" stroke-miterlimit="10"/></g><g clip-path="url(#57e4148668)"><path stroke-linecap="butt" transform="matrix(5.673065, 0, 0, 5.680203, -181.857071, 16.947509)" fill="none" stroke-linejoin="miter" d="M 34.999826 59.999668 L 37.000095 59.999668 " stroke="#2b2b2b" stroke-width="2" stroke-opacity="1" stroke-miterlimit="10"/></g><g fill="#000000" fill-opacity="1"><g transform="translate(82.347112, 31.400566)"><g><path d="M 2.359375 -0.03125 L 0.0625 -4.59375 C 0.0507812 -4.625 0.0507812 -4.65625 0.0625 -4.6875 C 0.0820312 -4.71875 0.113281 -4.734375 0.15625 -4.734375 L 0.78125 -4.734375 C 0.832031 -4.734375 0.867188 -4.722656 0.890625 -4.703125 C 0.910156 -4.679688 0.9375 -4.644531 0.96875 -4.59375 L 2.90625 -0.609375 L 2.609375 -0.03125 C 2.585938 0.0078125 2.566406 0.0390625 2.546875 0.0625 C 2.535156 0.0820312 2.515625 0.09375 2.484375 0.09375 L 2.46875 0.09375 C 2.445312 0.09375 2.425781 0.0820312 2.40625 0.0625 C 2.394531 0.0390625 2.378906 0.0078125 2.359375 -0.03125 Z M 4.890625 -4.59375 L 2.984375 -0.734375 L 2.5625 -1.59375 L 3.984375 -4.59375 C 4.035156 -4.6875 4.101562 -4.734375 4.1875 -4.734375 L 4.796875 -4.734375 C 4.847656 -4.734375 4.878906 -4.71875 4.890625 -4.6875 C 4.910156 -4.65625 4.910156 -4.625 4.890625 -4.59375 Z M 4.890625 -4.59375 "/></g></g></g><g fill="#000000" fill-opacity="1"><g transform="translate(87.294906, 31.400566)"><g><path d="M 1.328125 0 L 0.84375 0 C 0.78125 0 0.738281 -0.0078125 0.71875 -0.03125 C 0.707031 -0.0507812 0.703125 -0.0859375 0.703125 -0.140625 L 0.703125 -3.296875 C 0.703125 -3.347656 0.707031 -3.382812 0.71875 -3.40625 C 0.738281 -3.425781 0.78125 -3.4375 0.84375 -3.4375 L 1.328125 -3.4375 C 1.378906 -3.4375 1.414062 -3.425781 1.4375 -3.40625 C 1.457031 -3.382812 1.46875 -3.347656 1.46875 -3.296875 L 1.46875 -0.140625 C 1.46875 -0.0859375 1.457031 -0.0507812 1.4375 -0.03125 C 1.414062 -0.0078125 1.378906 0 1.328125 0 Z M 1.078125 -5 C 1.203125 -5 1.3125 -4.953125 1.40625 -4.859375 C 1.5 -4.765625 1.546875 -4.648438 1.546875 -4.515625 C 1.546875 -4.390625 1.5 -4.28125 1.40625 -4.1875 C 1.3125 -4.09375 1.203125 -4.046875 1.078125 -4.046875 C 0.941406 -4.046875 0.828125 -4.09375 0.734375 -4.1875 C 0.648438 -4.28125 0.609375 -4.390625 0.609375 -4.515625 C 0.609375 -4.648438 0.648438 -4.765625 0.734375 -4.859375 C 0.828125 -4.953125 0.941406 -5 1.078125 -5 Z M 1.078125 -5 "/></g></g></g><g fill="#000000" fill-opacity="1"><g transform="translate(89.444361, 31.400566)"><g><path d="M 1.859375 0.078125 C 1.546875 0.078125 1.269531 -0.00390625 1.03125 -0.171875 C 0.800781 -0.335938 0.617188 -0.554688 0.484375 -0.828125 C 0.359375 -1.097656 0.296875 -1.394531 0.296875 -1.71875 C 0.296875 -2.050781 0.359375 -2.351562 0.484375 -2.625 C 0.617188 -2.894531 0.800781 -3.109375 1.03125 -3.265625 C 1.269531 -3.429688 1.546875 -3.515625 1.859375 -3.515625 C 2.054688 -3.515625 2.242188 -3.472656 2.421875 -3.390625 C 2.609375 -3.304688 2.753906 -3.195312 2.859375 -3.0625 L 2.859375 -2.265625 C 2.765625 -2.453125 2.644531 -2.59375 2.5 -2.6875 C 2.351562 -2.78125 2.191406 -2.828125 2.015625 -2.828125 C 1.835938 -2.828125 1.675781 -2.773438 1.53125 -2.671875 C 1.382812 -2.578125 1.269531 -2.441406 1.1875 -2.265625 C 1.101562 -2.097656 1.0625 -1.914062 1.0625 -1.71875 C 1.0625 -1.507812 1.101562 -1.320312 1.1875 -1.15625 C 1.269531 -0.988281 1.382812 -0.851562 1.53125 -0.75 C 1.675781 -0.65625 1.835938 -0.609375 2.015625 -0.609375 C 2.160156 -0.609375 2.3125 -0.648438 2.46875 -0.734375 C 2.625 -0.816406 2.753906 -0.957031 2.859375 -1.15625 L 2.859375 -0.3125 C 2.742188 -0.195312 2.597656 -0.101562 2.421875 -0.03125 C 2.242188 0.0390625 2.054688 0.078125 1.859375 0.078125 Z M 3.75 -4.84375 L 3.75 -0.140625 C 3.75 -0.0859375 3.738281 -0.0507812 3.71875 -0.03125 C 3.695312 -0.0078125 3.660156 0 3.609375 0 L 3.375 0 C 3.28125 0 3.191406 -0.0351562 3.109375 -0.109375 L 2.984375 -0.296875 L 2.984375 -4.84375 C 2.984375 -4.90625 2.988281 -4.945312 3 -4.96875 C 3.019531 -4.988281 3.0625 -5 3.125 -5 L 3.609375 -5 C 3.660156 -5 3.695312 -4.988281 3.71875 -4.96875 C 3.738281 -4.945312 3.75 -4.90625 3.75 -4.84375 Z M 3.75 -4.84375 "/></g></g></g><g fill="#000000" fill-opacity="1"><g transform="translate(93.750026, 31.400566)"><g><path d="M 3.265625 -0.828125 L 3.453125 -0.59375 C 3.492188 -0.550781 3.515625 -0.515625 3.515625 -0.484375 C 3.523438 -0.460938 3.515625 -0.4375 3.484375 -0.40625 C 3.316406 -0.25 3.109375 -0.128906 2.859375 -0.046875 C 2.609375 0.0351562 2.359375 0.078125 2.109375 0.078125 C 1.765625 0.078125 1.453125 0 1.171875 -0.15625 C 0.898438 -0.320312 0.6875 -0.539062 0.53125 -0.8125 C 0.375 -1.082031 0.296875 -1.382812 0.296875 -1.71875 C 0.296875 -2.03125 0.367188 -2.320312 0.515625 -2.59375 C 0.671875 -2.863281 0.875 -3.082031 1.125 -3.25 C 1.382812 -3.414062 1.675781 -3.503906 2 -3.515625 L 2 -2.875 C 1.726562 -2.863281 1.503906 -2.75 1.328125 -2.53125 C 1.160156 -2.320312 1.078125 -2.054688 1.078125 -1.734375 L 1.078125 -1.6875 C 1.078125 -1.476562 1.125 -1.289062 1.21875 -1.125 C 1.3125 -0.957031 1.4375 -0.828125 1.59375 -0.734375 C 1.75 -0.640625 1.925781 -0.59375 2.125 -0.59375 C 2.25 -0.59375 2.390625 -0.609375 2.546875 -0.640625 C 2.703125 -0.679688 2.867188 -0.75 3.046875 -0.84375 C 3.078125 -0.851562 3.097656 -0.863281 3.109375 -0.875 C 3.128906 -0.882812 3.148438 -0.890625 3.171875 -0.890625 C 3.203125 -0.890625 3.234375 -0.867188 3.265625 -0.828125 Z M 3.75 -1.609375 C 3.75 -1.554688 3.738281 -1.519531 3.71875 -1.5 C 3.707031 -1.476562 3.675781 -1.46875 3.625 -1.46875 L 1.21875 -1.46875 C 1.1875 -1.632812 1.1875 -1.800781 1.21875 -1.96875 L 2.96875 -1.96875 C 2.957031 -2.101562 2.914062 -2.238281 2.84375 -2.375 C 2.78125 -2.507812 2.6875 -2.625 2.5625 -2.71875 C 2.445312 -2.820312 2.296875 -2.875 2.109375 -2.875 L 2.109375 -3.515625 C 2.472656 -3.503906 2.773438 -3.410156 3.015625 -3.234375 C 3.265625 -3.054688 3.445312 -2.820312 3.5625 -2.53125 C 3.6875 -2.25 3.75 -1.941406 3.75 -1.609375 Z M 3.75 -1.609375 "/></g></g></g><g fill="#000000" fill-opacity="1"><g transform="translate(97.751525, 31.400566)"><g><path d="M 2.140625 -2.828125 L 2.140625 -3.515625 C 2.460938 -3.503906 2.753906 -3.414062 3.015625 -3.25 C 3.273438 -3.082031 3.484375 -2.863281 3.640625 -2.59375 C 3.796875 -2.332031 3.875 -2.039062 3.875 -1.71875 C 3.875 -1.40625 3.796875 -1.113281 3.640625 -0.84375 C 3.484375 -0.570312 3.273438 -0.351562 3.015625 -0.1875 C 2.753906 -0.03125 2.460938 0.0546875 2.140625 0.078125 L 2.140625 -0.609375 C 2.316406 -0.617188 2.476562 -0.671875 2.625 -0.765625 C 2.769531 -0.867188 2.882812 -1.003906 2.96875 -1.171875 C 3.0625 -1.335938 3.109375 -1.519531 3.109375 -1.71875 C 3.109375 -1.914062 3.0625 -2.097656 2.96875 -2.265625 C 2.882812 -2.429688 2.769531 -2.5625 2.625 -2.65625 C 2.476562 -2.757812 2.316406 -2.816406 2.140625 -2.828125 Z M 2.015625 -0.609375 L 2.015625 0.078125 C 1.703125 0.0546875 1.410156 -0.03125 1.140625 -0.1875 C 0.878906 -0.351562 0.671875 -0.566406 0.515625 -0.828125 C 0.367188 -1.097656 0.296875 -1.394531 0.296875 -1.71875 C 0.296875 -2.039062 0.367188 -2.335938 0.515625 -2.609375 C 0.671875 -2.878906 0.878906 -3.09375 1.140625 -3.25 C 1.410156 -3.414062 1.703125 -3.503906 2.015625 -3.515625 L 2.015625 -2.828125 C 1.847656 -2.816406 1.691406 -2.765625 1.546875 -2.671875 C 1.398438 -2.578125 1.28125 -2.445312 1.1875 -2.28125 C 1.101562 -2.113281 1.0625 -1.925781 1.0625 -1.71875 C 1.0625 -1.519531 1.101562 -1.335938 1.1875 -1.171875 C 1.269531 -1.003906 1.382812 -0.867188 1.53125 -0.765625 C 1.6875 -0.671875 1.847656 -0.617188 2.015625 -0.609375 Z M 2.015625 -0.609375 "/></g></g></g><g fill="#000000" fill-opacity="1"><g transform="translate(101.908488, 31.400566)"><g/></g></g><g fill="#000000" fill-opacity="1"><g transform="translate(103.618587, 31.400566)"><g><path d="M 1.515625 -4.734375 L 2.40625 -4.734375 C 2.59375 -4.734375 2.785156 -4.707031 2.984375 -4.65625 C 3.179688 -4.613281 3.363281 -4.539062 3.53125 -4.4375 C 3.695312 -4.34375 3.832031 -4.210938 3.9375 -4.046875 C 4.039062 -3.878906 4.09375 -3.671875 4.09375 -3.421875 C 4.09375 -3.242188 4.054688 -3.085938 3.984375 -2.953125 C 3.910156 -2.828125 3.820312 -2.722656 3.71875 -2.640625 C 3.625 -2.554688 3.523438 -2.488281 3.421875 -2.4375 C 3.523438 -2.394531 3.640625 -2.328125 3.765625 -2.234375 C 3.898438 -2.148438 4.015625 -2.03125 4.109375 -1.875 C 4.210938 -1.726562 4.265625 -1.539062 4.265625 -1.3125 C 4.265625 -0.988281 4.179688 -0.726562 4.015625 -0.53125 C 3.859375 -0.34375 3.648438 -0.207031 3.390625 -0.125 C 3.140625 -0.0390625 2.867188 0 2.578125 0 L 1.515625 0 L 1.515625 -0.6875 L 2.53125 -0.6875 C 2.851562 -0.6875 3.082031 -0.742188 3.21875 -0.859375 C 3.363281 -0.984375 3.4375 -1.160156 3.4375 -1.390625 C 3.4375 -1.578125 3.359375 -1.738281 3.203125 -1.875 C 3.046875 -2.007812 2.832031 -2.078125 2.5625 -2.078125 L 1.515625 -2.078125 L 1.515625 -2.734375 L 2.4375 -2.734375 C 2.707031 -2.734375 2.914062 -2.789062 3.0625 -2.90625 C 3.207031 -3.03125 3.28125 -3.175781 3.28125 -3.34375 C 3.28125 -3.582031 3.203125 -3.757812 3.046875 -3.875 C 2.890625 -3.988281 2.664062 -4.046875 2.375 -4.046875 L 1.515625 -4.046875 Z M 0.578125 -0.140625 L 0.578125 -4.59375 C 0.578125 -4.644531 0.585938 -4.679688 0.609375 -4.703125 C 0.628906 -4.722656 0.664062 -4.734375 0.71875 -4.734375 L 1.390625 -4.734375 L 1.390625 0 L 0.71875 0 C 0.664062 0 0.628906 -0.00390625 0.609375 -0.015625 C 0.585938 -0.0351562 0.578125 -0.078125 0.578125 -0.140625 Z M 0.578125 -0.140625 "/></g></g></g></svg>