<svg xmlns="http://www.w3.org/2000/svg" xmlns:xlink="http://www.w3.org/1999/xlink" width="500" zoomAndPan="magnify" viewBox="0 0 375 374.999991" height="500" preserveAspectRatio="xMidYMid meet" version="1.0"><defs><g/><clipPath id="dd7b90acb5"><path d="M 0 152.925781 L 375 152.925781 L 375 231.601562 L 0 231.601562 Z M 0 152.925781 " clip-rule="nonzero"/></clipPath><clipPath id="bea4819d87"><path d="M 186 154.667969 L 194 154.667969 L 194 160 L 186 160 Z M 186 154.667969 " clip-rule="nonzero"/></clipPath><clipPath id="1b620fb99b"><path d="M 135 172 L 243.363281 172 L 243.363281 210 L 135 210 Z M 135 172 " clip-rule="nonzero"/></clipPath></defs><g fill="#db4a2b" fill-opacity="1"><g transform="translate(11.327352, 356.657607)"><g><path d="M 14.46875 0 L 14.46875 -326.9375 L 79.171875 -326.9375 L 79.171875 -196.015625 L 109.609375 -326.9375 L 175.453125 -326.9375 L 138.921875 -177.359375 L 183.078125 0 L 115.328125 0 L 79.546875 -158.328125 L 79.546875 0 Z M 14.46875 0 "/></g></g></g><g fill="#db4a2b" fill-opacity="1"><g transform="translate(190.971405, 356.657607)"><g><path d="M 92.484375 3.046875 C 66.097656 3.046875 46.050781 -5.007812 32.34375 -21.125 C 18.644531 -37.238281 11.796875 -59.882812 11.796875 -89.0625 L 11.796875 -244.734375 C 11.796875 -272.898438 18.644531 -294.148438 32.34375 -308.484375 C 46.050781 -322.816406 66.097656 -329.984375 92.484375 -329.984375 C 118.878906 -329.984375 138.925781 -322.816406 152.625 -308.484375 C 166.320312 -294.148438 173.171875 -272.898438 173.171875 -244.734375 L 173.171875 -89.0625 C 173.171875 -59.625 166.320312 -36.910156 152.625 -20.921875 C 138.925781 -4.941406 118.878906 3.046875 92.484375 3.046875 Z M 92.484375 -57.09375 C 98.316406 -57.09375 102.25 -59.628906 104.28125 -64.703125 C 106.3125 -69.773438 107.328125 -76.878906 107.328125 -86.015625 L 107.328125 -245.875 C 107.328125 -252.976562 106.375 -258.75 104.46875 -263.1875 C 102.570312 -267.632812 98.707031 -269.859375 92.875 -269.859375 C 81.957031 -269.859375 76.5 -261.609375 76.5 -245.109375 L 76.5 -85.640625 C 76.5 -76.242188 77.640625 -69.132812 79.921875 -64.3125 C 82.210938 -59.5 86.398438 -57.09375 92.484375 -57.09375 Z M 92.484375 -57.09375 "/></g></g></g><g clip-path="url(#dd7b90acb5)"><path fill="#ffffff" d="M -248.410156 152.925781 L 583.242188 152.925781 L 583.242188 231.601562 L -248.410156 231.601562 Z M -248.410156 152.925781 " fill-opacity="1" fill-rule="nonzero"/></g><path fill="#db4a2b" d="M 189.355469 209.863281 C 192.480469 209.863281 195.265625 209.355469 197.808594 208.472656 L 181.136719 209.09375 C 183.128906 209.503906 185.550781 209.769531 188.550781 209.851562 C 188.820312 209.859375 189.089844 209.863281 189.355469 209.863281 Z M 189.355469 209.863281 " fill-opacity="1" fill-rule="nonzero"/><path fill="#db4a2b" d="M 200.390625 211.222656 C 197.140625 212.550781 193.515625 213.351562 189.355469 213.351562 C 189.058594 213.351562 188.753906 213.34375 188.457031 213.335938 C 184.402344 213.226562 181.097656 212.792969 178.339844 212 C 176.390625 213.539062 174.234375 214.671875 173.058594 215.574219 C 171.242188 216.972656 171.523438 218.785156 178.5 218.507812 C 185.480469 218.226562 209.449219 220.339844 208.371094 217.53125 C 207.871094 216.230469 203.410156 213.660156 200.390625 211.222656 Z M 200.390625 211.222656 " fill-opacity="1" fill-rule="nonzero"/><path fill="#db4a2b" d="M 189.53125 178.6875 C 195.832031 178.6875 202.078125 177.984375 208.09375 176.601562 C 198.230469 166.320312 179.941406 171.386719 177.246094 172.035156 C 175.253906 172.515625 172.621094 174.59375 170.71875 176.84375 C 176.28125 177.863281 182.5625 178.6875 189.53125 178.6875 Z M 189.53125 178.6875 " fill-opacity="1" fill-rule="nonzero"/><path fill="#db4a2b" d="M 190.402344 166.730469 C 193.28125 166.730469 195.96875 167.019531 198.445312 167.585938 C 197.023438 165.464844 194.894531 163.304688 191.621094 162.957031 C 186.699219 162.433594 182.25 165.289062 179.804688 167.867188 C 182.445312 167.324219 186.214844 166.730469 190.402344 166.730469 Z M 190.402344 166.730469 " fill-opacity="1" fill-rule="nonzero"/><g clip-path="url(#bea4819d87)"><path fill="#db4a2b" d="M 190.433594 159.410156 C 190.953125 159.410156 191.476562 159.4375 191.988281 159.492188 C 192.550781 159.550781 193.101562 159.648438 193.636719 159.785156 C 194.464844 157.238281 194.160156 155.066406 189.554688 154.863281 C 185.347656 154.675781 186.03125 157.773438 186.929688 159.820312 C 188.027344 159.566406 189.195312 159.410156 190.433594 159.410156 Z M 190.433594 159.410156 " fill-opacity="1" fill-rule="nonzero"/></g><g clip-path="url(#1b620fb99b)"><path fill="#db4a2b" d="M 243.078125 179.984375 C 242.894531 178.308594 230.699219 174.960938 208.925781 179.984375 C 187.15625 185.007812 169.289062 180.125 157.984375 177.75 C 146.679688 175.378906 150.449219 169.796875 141.097656 173.007812 C 131.746094 176.214844 135.933594 186.265625 140.121094 192.546875 C 144.308594 198.828125 154.773438 188.917969 155.890625 189.335938 C 158.535156 190.328125 163.984375 196.316406 168.453125 200.222656 C 172.917969 204.128906 173.199219 209.433594 188.550781 209.851562 C 203.902344 210.273438 211.160156 198.6875 221.488281 189.335938 C 231.816406 179.984375 243.261719 181.660156 243.078125 179.984375 Z M 143.898438 187.085938 C 142.15625 185.515625 140.441406 182.90625 142.242188 180.003906 C 143.84375 177.414062 148.601562 178.023438 149.84375 181.480469 C 151.089844 184.9375 146.59375 189.515625 143.898438 187.085938 Z M 143.898438 187.085938 " fill-opacity="1" fill-rule="nonzero"/></g></svg>