<svg xmlns="http://www.w3.org/2000/svg" xmlns:xlink="http://www.w3.org/1999/xlink" width="500" zoomAndPan="magnify" viewBox="0 0 375 374.999991" height="500" preserveAspectRatio="xMidYMid meet" version="1.0"><path fill="#db4a2b" d="M 188.5 262.261719 C 199.070312 262.261719 208.484375 260.550781 217.089844 257.5625 L 160.710938 259.660156 C 167.449219 261.039062 175.640625 261.949219 185.78125 262.226562 C 186.695312 262.25 187.601562 262.261719 188.5 262.261719 Z M 188.5 262.261719 " fill-opacity="1" fill-rule="nonzero"/><path fill="#db4a2b" d="M 225.816406 266.855469 C 214.824219 271.355469 202.570312 274.050781 188.5 274.050781 C 187.5 274.050781 186.476562 274.035156 185.460938 274.007812 C 171.753906 273.632812 160.578125 272.167969 151.25 269.484375 C 144.664062 274.691406 137.367188 278.519531 133.394531 281.578125 C 127.257812 286.296875 128.203125 292.433594 151.800781 291.488281 C 175.398438 290.542969 256.457031 297.695312 252.800781 288.183594 C 251.109375 283.789062 236.035156 275.097656 225.816406 266.855469 Z M 225.816406 266.855469 " fill-opacity="1" fill-rule="nonzero"/><path fill="#db4a2b" d="M 189.097656 156.832031 C 210.410156 156.832031 231.53125 154.457031 251.871094 149.777344 C 218.511719 115.023438 156.671875 132.152344 147.550781 134.34375 C 140.820312 135.960938 131.917969 142.988281 125.476562 150.601562 C 144.292969 154.042969 165.53125 156.832031 189.097656 156.832031 Z M 189.097656 156.832031 " fill-opacity="1" fill-rule="nonzero"/><path fill="#db4a2b" d="M 192.039062 116.410156 C 201.777344 116.410156 210.863281 117.386719 219.242188 119.296875 C 214.429688 112.121094 207.234375 104.824219 196.164062 103.644531 C 179.523438 101.875 164.480469 111.523438 156.207031 120.246094 C 165.136719 118.414062 177.886719 116.410156 192.039062 116.410156 Z M 192.039062 116.410156 " fill-opacity="1" fill-rule="nonzero"/><path fill="#db4a2b" d="M 192.152344 91.644531 C 193.90625 91.644531 195.675781 91.738281 197.410156 91.925781 C 199.3125 92.125 201.171875 92.457031 202.984375 92.917969 C 205.785156 84.300781 204.757812 76.964844 189.179688 76.269531 C 174.957031 75.636719 177.265625 86.109375 180.296875 93.03125 C 184.007812 92.171875 187.96875 91.644531 192.152344 91.644531 Z M 192.152344 91.644531 " fill-opacity="1" fill-rule="nonzero"/><path fill="#db4a2b" d="M 370.171875 161.226562 C 369.554688 155.5625 328.316406 144.234375 254.6875 161.226562 C 181.0625 178.214844 120.648438 161.695312 82.421875 153.671875 C 44.191406 145.648438 56.933594 126.773438 25.3125 137.625 C -6.308594 148.480469 7.851562 182.464844 22.007812 203.703125 C 36.167969 224.941406 71.566406 191.429688 75.339844 192.847656 C 84.277344 196.199219 102.714844 216.445312 117.816406 229.660156 C 132.921875 242.875 133.863281 260.808594 185.78125 262.226562 C 237.699219 263.640625 262.238281 224.46875 297.164062 192.847656 C 332.089844 161.226562 370.792969 166.890625 370.171875 161.226562 Z M 34.789062 185.242188 C 28.894531 179.929688 23.105469 171.101562 29.179688 161.28125 C 34.601562 152.527344 50.683594 154.597656 54.894531 166.285156 C 59.101562 177.972656 43.90625 193.453125 34.789062 185.242188 Z M 34.789062 185.242188 " fill-opacity="1" fill-rule="nonzero"/><path stroke-linecap="butt" transform="matrix(0.75, 0, 0, 0.75, 127.499996, 297.656232)" fill="none" stroke-linejoin="miter" d="M 0.00000516333 2.000025 L 160.000016 2.000025 " stroke="#000000" stroke-width="4" stroke-opacity="1" stroke-miterlimit="4"/></svg>