<svg xmlns="http://www.w3.org/2000/svg" xmlns:xlink="http://www.w3.org/1999/xlink" width="500" zoomAndPan="magnify" viewBox="0 0 375 374.999991" height="500" preserveAspectRatio="xMidYMid meet" version="1.0"><defs><g/></defs><g fill="#db4a2b" fill-opacity="1"><g transform="translate(8.530438, 353.2547)"><g><path d="M 14.46875 0 L 14.46875 -326.9375 L 79.171875 -326.9375 L 79.171875 -196.015625 L 109.609375 -326.9375 L 175.453125 -326.9375 L 138.921875 -177.359375 L 183.078125 0 L 115.328125 0 L 79.546875 -158.328125 L 79.546875 0 Z M 14.46875 0 "/></g></g></g><path fill="#db4a2b" d="M 333.414062 189.234375 C 333.414062 179.746094 331.875 171.289062 329.191406 163.558594 L 331.078125 214.191406 C 332.316406 208.140625 333.132812 200.785156 333.378906 191.679688 C 333.402344 190.855469 333.414062 190.042969 333.414062 189.234375 Z M 333.414062 189.234375 " fill-opacity="1" fill-rule="nonzero"/><path fill="#db4a2b" d="M 337.539062 155.722656 C 341.578125 165.59375 344 176.601562 344 189.234375 C 344 190.136719 343.988281 191.054688 343.960938 191.96875 C 343.625 204.277344 342.308594 214.3125 339.898438 222.691406 C 344.578125 228.605469 348.011719 235.15625 350.757812 238.726562 C 354.996094 244.238281 360.507812 243.390625 359.660156 222.195312 C 358.8125 201.003906 365.234375 128.203125 356.691406 131.488281 C 352.746094 133.007812 344.941406 146.546875 337.539062 155.722656 Z M 337.539062 155.722656 " fill-opacity="1" fill-rule="nonzero"/><path fill="#db4a2b" d="M 238.726562 188.699219 C 238.726562 169.558594 236.597656 150.59375 232.390625 132.324219 C 201.179688 162.28125 216.566406 217.824219 218.53125 226.011719 C 219.984375 232.054688 226.296875 240.050781 233.132812 245.835938 C 236.222656 228.9375 238.726562 209.863281 238.726562 188.699219 Z M 238.726562 188.699219 " fill-opacity="1" fill-rule="nonzero"/><path fill="#db4a2b" d="M 202.425781 186.058594 C 202.425781 177.3125 203.300781 169.152344 205.015625 161.628906 C 198.574219 165.953125 192.019531 172.410156 190.960938 182.351562 C 189.371094 197.296875 198.039062 210.808594 205.871094 218.238281 C 204.226562 210.21875 202.425781 198.765625 202.425781 186.058594 Z M 202.425781 186.058594 " fill-opacity="1" fill-rule="nonzero"/><path fill="#db4a2b" d="M 180.1875 185.957031 C 180.1875 184.378906 180.269531 182.792969 180.433594 181.234375 C 180.617188 179.527344 180.914062 177.855469 181.328125 176.226562 C 173.589844 173.714844 167 174.636719 166.378906 188.625 C 165.808594 201.402344 175.210938 199.328125 181.429688 196.601562 C 180.660156 193.273438 180.1875 189.714844 180.1875 185.957031 Z M 180.1875 185.957031 " fill-opacity="1" fill-rule="nonzero"/><path fill="#db4a2b" d="M 242.671875 26.078125 C 237.585938 26.636719 227.414062 63.671875 242.671875 129.792969 C 257.933594 195.917969 243.097656 250.171875 235.890625 284.503906 C 228.6875 318.839844 211.730469 307.394531 221.480469 335.792969 C 231.230469 364.191406 261.746094 351.476562 280.820312 338.761719 C 299.894531 326.042969 269.800781 294.253906 271.070312 290.863281 C 274.082031 282.835938 292.265625 266.277344 304.132812 252.714844 C 316.003906 239.152344 332.109375 238.304688 333.378906 191.679688 C 334.652344 145.054688 299.472656 123.011719 271.070312 91.644531 C 242.671875 60.28125 247.757812 25.523438 242.671875 26.078125 Z M 264.242188 327.28125 C 259.472656 332.574219 251.542969 337.777344 242.726562 332.320312 C 234.863281 327.453125 236.722656 313.007812 247.21875 309.226562 C 257.714844 305.449219 271.617188 319.09375 264.242188 327.28125 Z M 264.242188 327.28125 " fill-opacity="1" fill-rule="nonzero"/></svg>