<svg xmlns="http://www.w3.org/2000/svg" xmlns:xlink="http://www.w3.org/1999/xlink" width="50" zoomAndPan="magnify" viewBox="0 0 37.5 30.000001" height="40" preserveAspectRatio="xMidYMid meet" version="1.0"><defs><g/><clipPath id="7b43e93ca1"><path d="M 0.363281 0 L 36.652344 0 L 36.652344 29.03125 L 0.363281 29.03125 Z M 0.363281 0 " clip-rule="nonzero"/></clipPath></defs><g clip-path="url(#7b43e93ca1)"><path fill="#ffffff" d="M 0.363281 0 L 36.652344 0 L 36.652344 29.03125 L 0.363281 29.03125 Z M 0.363281 0 " fill-opacity="1" fill-rule="nonzero"/><path fill="#ffffff" d="M 0.363281 0 L 36.652344 0 L 36.652344 29.03125 L 0.363281 29.03125 Z M 0.363281 0 " fill-opacity="1" fill-rule="nonzero"/><path stroke-linecap="butt" transform="matrix(0.731417, 0, 0, 0.731417, -3.368128, -4.135001)" fill="none" stroke-linejoin="miter" d="M 40.5102 11.501435 C 39.794552 12.003457 39.164354 12.398666 38.614265 12.687062 C 38.064177 12.970117 37.530111 13.189084 37.001386 13.349304 C 36.39255 14.310623 35.730308 15.229217 35.009319 16.094404 C 34.28833 16.959591 33.535297 17.798075 32.75556 18.604514 C 31.970483 19.416295 31.180065 20.206713 30.373625 20.975768 C 29.567186 21.744823 28.787449 22.513878 28.023735 23.277593 C 28.525757 23.993241 29.097207 24.789 29.738087 25.67555 C 30.384307 26.556759 31.078593 27.443309 31.826285 28.34054 C 32.568637 29.23243 33.359055 30.108298 34.186857 30.957464 C 35.01466 31.811969 35.863825 32.565003 36.723671 33.221904 C 37.588859 33.878805 38.475408 34.407531 39.372639 34.80808 C 40.275211 35.20863 41.167101 35.406234 42.048311 35.406234 C 42.358069 35.406234 42.68919 35.36885 43.030992 35.299421 C 43.378135 35.224652 43.735959 35.101817 44.104465 34.920234 C 43.388816 35.699971 42.758618 36.303465 42.219212 36.736059 C 41.674464 37.173993 41.220508 37.494433 40.852002 37.697378 C 40.419409 37.948389 40.050903 38.097927 39.741145 38.140653 C 39.356617 38.178037 38.89198 38.087246 38.347232 37.87362 C 37.797144 37.659993 37.19899 37.360916 36.558111 36.971048 C 35.911891 36.58118 35.244308 36.127223 34.550022 35.603839 C 33.861077 35.080454 33.188154 34.525025 32.531252 33.937552 C 31.804923 33.259288 31.025186 32.474211 30.202724 31.57698 C 29.503098 30.813266 28.707339 29.883991 27.815449 28.794496 C 26.928899 27.705001 26.020987 26.460627 25.086371 25.066714 L 26.624481 23.133395 C 26.982306 22.834318 27.409558 22.460472 27.895559 22.017197 C 28.386899 21.568581 28.899603 21.07724 29.433669 20.548515 C 29.973076 20.014449 30.517823 19.45368 31.073252 18.855525 C 31.628681 18.262712 32.146725 17.659217 32.638066 17.061063 C 33.129407 16.457569 33.562 15.864755 33.946528 15.277283 C 34.325715 14.69515 34.624792 14.145062 34.838418 13.632359 C 34.491275 13.669744 34.010616 13.71781 33.391099 13.776557 C 32.771582 13.835304 32.066615 13.926095 31.276197 14.04359 C 31.922417 13.520205 32.499209 13.119655 33.011912 12.847282 C 33.524615 12.569567 33.96789 12.366622 34.336396 12.238446 C 34.768989 12.094249 35.153517 12.008798 35.50066 11.987435 C 35.917232 11.998117 36.376528 11.992776 36.878551 11.971413 C 37.380573 11.94471 37.866573 11.912666 38.336551 11.869941 C 38.806529 11.827215 39.239123 11.773809 39.62365 11.709721 C 40.013519 11.645633 40.307255 11.576204 40.5102 11.501435 Z M 28.167932 35.69463 C 27.521712 36.121883 26.992987 36.490388 26.571075 36.800147 C 26.154503 37.109905 25.775316 37.366257 25.438855 37.563861 C 25.097052 37.756125 24.771272 37.905664 24.450832 38.001795 C 24.135733 38.097927 23.761887 38.140653 23.334634 38.140653 C 22.763183 38.140653 22.271843 38.11929 21.865952 38.071224 C 21.460062 38.023158 21.054172 38.001795 20.653622 38.001795 C 20.450677 38.001795 20.242391 38.007136 20.034106 38.028499 C 19.82582 38.044521 19.596171 38.081905 19.34516 38.140653 C 19.681622 37.857598 19.980699 37.547839 20.258413 37.211378 C 20.530787 36.880257 20.765776 36.469026 20.963381 35.977685 C 21.160985 35.491685 21.315864 34.904212 21.422677 34.215267 C 21.529491 33.531662 21.582897 32.70386 21.582897 31.7372 L 21.582897 13.669744 C 21.214392 13.707128 20.765776 13.749853 20.242391 13.813941 C 19.713666 13.872689 19.120852 13.947458 18.45327 14.04359 C 19.094149 13.520205 19.676281 13.119655 20.194325 12.847282 C 20.712369 12.569567 21.155644 12.366622 21.529491 12.238446 C 21.956744 12.094249 22.341271 12.008798 22.672392 11.987435 C 23.088964 11.998117 23.553601 11.992776 24.060964 11.971413 C 24.568327 11.94471 25.054327 11.912666 25.524305 11.869941 C 25.999624 11.827215 26.432218 11.773809 26.822086 11.709721 C 27.217295 11.645633 27.511031 11.576204 27.697954 11.501435 C 27.137185 11.875281 26.635163 12.18504 26.186547 12.441392 C 25.743272 12.697743 25.316019 12.91137 24.910129 13.07693 C 24.851382 15.234557 24.797975 17.167877 24.75525 18.876888 C 24.717865 20.580559 24.680481 22.091966 24.648437 23.411109 C 24.621733 24.730253 24.59503 25.867813 24.579008 26.829132 C 24.562986 27.785111 24.546964 28.607573 24.530942 29.285837 C 24.498898 30.872013 24.488217 31.961508 24.498898 32.54364 C 24.488217 32.986915 24.424129 33.419508 24.317316 33.846761 C 24.221184 34.231289 24.082327 34.631838 23.890063 35.059091 C 23.697799 35.481003 23.425425 35.865531 23.067601 36.212674 C 23.291909 36.234037 23.516217 36.244718 23.729843 36.244718 C 23.943469 36.244718 24.151755 36.244718 24.3547 36.244718 C 24.963536 36.244718 25.502942 36.218015 25.972921 36.164608 C 26.442899 36.111201 26.843448 36.052454 27.163888 35.977685 C 27.543075 35.892234 27.879537 35.801443 28.167932 35.69463 Z M 28.167932 35.69463 " stroke="#000000" stroke-width="2.748173" stroke-opacity="1" stroke-miterlimit="4"/></g><g fill="#8c52ff" fill-opacity="1"><g transform="translate(9.328813, 23.658843)"><g><path d="M 16.9375 -19.375 C 16.40625 -19.007812 15.9375 -18.722656 15.53125 -18.515625 C 15.132812 -18.304688 14.742188 -18.144531 14.359375 -18.03125 C 13.921875 -17.320312 13.4375 -16.648438 12.90625 -16.015625 C 12.375 -15.390625 11.820312 -14.78125 11.25 -14.1875 C 10.6875 -13.59375 10.109375 -13.015625 9.515625 -12.453125 C 8.929688 -11.890625 8.359375 -11.328125 7.796875 -10.765625 C 8.160156 -10.242188 8.578125 -9.660156 9.046875 -9.015625 C 9.523438 -8.367188 10.035156 -7.71875 10.578125 -7.0625 C 11.117188 -6.40625 11.691406 -5.765625 12.296875 -5.140625 C 12.910156 -4.523438 13.53125 -3.976562 14.15625 -3.5 C 14.789062 -3.019531 15.4375 -2.628906 16.09375 -2.328125 C 16.757812 -2.035156 17.414062 -1.890625 18.0625 -1.890625 C 18.28125 -1.890625 18.515625 -1.914062 18.765625 -1.96875 C 19.023438 -2.019531 19.289062 -2.113281 19.5625 -2.25 C 19.039062 -1.6875 18.578125 -1.242188 18.171875 -0.921875 C 17.773438 -0.597656 17.445312 -0.363281 17.1875 -0.21875 C 16.863281 -0.0390625 16.59375 0.0664062 16.375 0.109375 C 16.09375 0.128906 15.75 0.0625 15.34375 -0.09375 C 14.945312 -0.25 14.507812 -0.46875 14.03125 -0.75 C 13.5625 -1.03125 13.070312 -1.363281 12.5625 -1.75 C 12.0625 -2.132812 11.570312 -2.539062 11.09375 -2.96875 C 10.5625 -3.46875 9.992188 -4.046875 9.390625 -4.703125 C 8.878906 -5.253906 8.296875 -5.925781 7.640625 -6.71875 C 6.992188 -7.519531 6.332031 -8.429688 5.65625 -9.453125 L 6.78125 -10.875 C 7.039062 -11.09375 7.347656 -11.363281 7.703125 -11.6875 C 8.066406 -12.019531 8.441406 -12.378906 8.828125 -12.765625 C 9.222656 -13.148438 9.625 -13.5625 10.03125 -14 C 10.4375 -14.4375 10.816406 -14.875 11.171875 -15.3125 C 11.523438 -15.75 11.84375 -16.179688 12.125 -16.609375 C 12.40625 -17.046875 12.625 -17.453125 12.78125 -17.828125 C 12.53125 -17.796875 12.175781 -17.757812 11.71875 -17.71875 C 11.269531 -17.675781 10.753906 -17.609375 10.171875 -17.515625 C 10.648438 -17.898438 11.078125 -18.191406 11.453125 -18.390625 C 11.828125 -18.597656 12.148438 -18.75 12.421875 -18.84375 C 12.734375 -18.945312 13.015625 -19.007812 13.265625 -19.03125 C 13.566406 -19.019531 13.898438 -19.019531 14.265625 -19.03125 C 14.640625 -19.050781 15 -19.078125 15.34375 -19.109375 C 15.6875 -19.140625 16 -19.175781 16.28125 -19.21875 C 16.5625 -19.269531 16.78125 -19.320312 16.9375 -19.375 Z M 7.90625 -1.6875 C 7.4375 -1.375 7.046875 -1.101562 6.734375 -0.875 C 6.429688 -0.644531 6.15625 -0.457031 5.90625 -0.3125 C 5.65625 -0.175781 5.414062 -0.0703125 5.1875 0 C 4.957031 0.0703125 4.6875 0.109375 4.375 0.109375 C 3.945312 0.109375 3.585938 0.0859375 3.296875 0.046875 C 3.003906 0.015625 2.707031 0 2.40625 0 C 2.257812 0 2.109375 0.00390625 1.953125 0.015625 C 1.804688 0.0351562 1.640625 0.0664062 1.453125 0.109375 C 1.691406 -0.0976562 1.910156 -0.320312 2.109375 -0.5625 C 2.316406 -0.8125 2.492188 -1.113281 2.640625 -1.46875 C 2.785156 -1.832031 2.894531 -2.265625 2.96875 -2.765625 C 3.050781 -3.265625 3.09375 -3.867188 3.09375 -4.578125 L 3.09375 -17.796875 C 2.820312 -17.765625 2.492188 -17.726562 2.109375 -17.6875 C 1.722656 -17.644531 1.285156 -17.585938 0.796875 -17.515625 C 1.265625 -17.898438 1.6875 -18.191406 2.0625 -18.390625 C 2.445312 -18.597656 2.773438 -18.75 3.046875 -18.84375 C 3.359375 -18.945312 3.640625 -19.007812 3.890625 -19.03125 C 4.191406 -19.019531 4.523438 -19.019531 4.890625 -19.03125 C 5.265625 -19.050781 5.625 -19.078125 5.96875 -19.109375 C 6.3125 -19.140625 6.628906 -19.175781 6.921875 -19.21875 C 7.210938 -19.269531 7.425781 -19.320312 7.5625 -19.375 C 7.15625 -19.101562 6.785156 -18.875 6.453125 -18.6875 C 6.128906 -18.5 5.816406 -18.347656 5.515625 -18.234375 C 5.472656 -16.648438 5.4375 -15.234375 5.40625 -13.984375 C 5.375 -12.734375 5.347656 -11.625 5.328125 -10.65625 C 5.304688 -9.695312 5.289062 -8.867188 5.28125 -8.171875 C 5.269531 -7.472656 5.257812 -6.875 5.25 -6.375 C 5.21875 -5.207031 5.207031 -4.410156 5.21875 -3.984375 C 5.207031 -3.660156 5.164062 -3.34375 5.09375 -3.03125 C 5.019531 -2.75 4.910156 -2.453125 4.765625 -2.140625 C 4.628906 -1.835938 4.429688 -1.5625 4.171875 -1.3125 C 4.335938 -1.289062 4.5 -1.28125 4.65625 -1.28125 C 4.8125 -1.28125 4.960938 -1.28125 5.109375 -1.28125 C 5.554688 -1.28125 5.953125 -1.300781 6.296875 -1.34375 C 6.640625 -1.382812 6.929688 -1.429688 7.171875 -1.484375 C 7.453125 -1.535156 7.695312 -1.601562 7.90625 -1.6875 Z M 7.90625 -1.6875 "/></g></g></g></svg>