<svg xmlns="http://www.w3.org/2000/svg" xmlns:xlink="http://www.w3.org/1999/xlink" width="147" zoomAndPan="magnify" viewBox="0 0 110.25 30.000001" height="40" preserveAspectRatio="xMidYMid meet" version="1.0"><defs><g/></defs><g fill="#db4a2b" fill-opacity="1"><g transform="translate(15.967302, 25.713858)"><g><path d="M 0.984375 0 L 0.984375 -22.265625 L 5.390625 -22.265625 L 5.390625 -13.34375 L 7.46875 -22.265625 L 11.953125 -22.265625 L 9.46875 -12.078125 L 12.46875 0 L 7.859375 0 L 5.421875 -10.78125 L 5.421875 0 Z M 0.984375 0 "/></g></g></g><g fill="#db4a2b" fill-opacity="1"><g transform="translate(28.203834, 25.713858)"><g><path d="M 6.296875 0.203125 C 4.503906 0.203125 3.140625 -0.34375 2.203125 -1.4375 C 1.265625 -2.53125 0.796875 -4.070312 0.796875 -6.0625 L 0.796875 -16.671875 C 0.796875 -18.585938 1.265625 -20.03125 2.203125 -21 C 3.140625 -21.976562 4.503906 -22.46875 6.296875 -22.46875 C 8.097656 -22.46875 9.460938 -21.976562 10.390625 -21 C 11.328125 -20.03125 11.796875 -18.585938 11.796875 -16.671875 L 11.796875 -6.0625 C 11.796875 -4.0625 11.328125 -2.515625 10.390625 -1.421875 C 9.460938 -0.335938 8.097656 0.203125 6.296875 0.203125 Z M 6.296875 -3.890625 C 6.691406 -3.890625 6.957031 -4.0625 7.09375 -4.40625 C 7.238281 -4.75 7.3125 -5.234375 7.3125 -5.859375 L 7.3125 -16.75 C 7.3125 -17.226562 7.242188 -17.617188 7.109375 -17.921875 C 6.984375 -18.222656 6.722656 -18.375 6.328125 -18.375 C 5.578125 -18.375 5.203125 -17.8125 5.203125 -16.6875 L 5.203125 -5.828125 C 5.203125 -5.191406 5.28125 -4.707031 5.4375 -4.375 C 5.59375 -4.050781 5.878906 -3.890625 6.296875 -3.890625 Z M 6.296875 -3.890625 "/></g></g></g><g fill="#2b2b2b" fill-opacity="1"><g transform="translate(40.803492, 25.713858)"><g><path d="M 5.578125 0.203125 C 3.960938 0.203125 2.757812 -0.359375 1.96875 -1.484375 C 1.1875 -2.617188 0.796875 -4.335938 0.796875 -6.640625 L 0.796875 -16.234375 C 0.796875 -18.285156 1.253906 -19.835938 2.171875 -20.890625 C 3.085938 -21.941406 4.453125 -22.46875 6.265625 -22.46875 C 7.734375 -22.46875 8.875 -22.175781 9.6875 -21.59375 C 10.5 -21.007812 11.0625 -20.15625 11.375 -19.03125 C 11.6875 -17.90625 11.84375 -16.460938 11.84375 -14.703125 L 7.484375 -14.703125 L 7.484375 -16.6875 C 7.484375 -17.226562 7.410156 -17.644531 7.265625 -17.9375 C 7.117188 -18.226562 6.859375 -18.375 6.484375 -18.375 C 5.628906 -18.375 5.203125 -17.820312 5.203125 -16.71875 L 5.203125 -5.9375 C 5.203125 -5.257812 5.289062 -4.75 5.46875 -4.40625 C 5.644531 -4.0625 5.945312 -3.890625 6.375 -3.890625 C 6.8125 -3.890625 7.113281 -4.0625 7.28125 -4.40625 C 7.457031 -4.75 7.546875 -5.257812 7.546875 -5.9375 L 7.546875 -9.125 L 6.34375 -9.125 L 6.34375 -12.953125 L 11.796875 -12.953125 L 11.796875 0 L 10 0 L 9.25 -1.859375 C 8.457031 -0.484375 7.234375 0.203125 5.578125 0.203125 Z M 5.578125 0.203125 "/></g></g></g><g fill="#2b2b2b" fill-opacity="1"><g transform="translate(53.377045, 25.713858)"><g><path d="M 0.984375 0 L 0.984375 -22.265625 L 9.90625 -22.265625 L 9.90625 -17.96875 L 5.515625 -17.96875 L 5.515625 -13.640625 L 9.71875 -13.640625 L 9.71875 -9.4375 L 5.515625 -9.4375 L 5.515625 -4.328125 L 10.1875 -4.328125 L 10.1875 0 Z M 0.984375 0 "/></g></g></g><g fill="#2b2b2b" fill-opacity="1"><g transform="translate(64.058082, 25.713858)"><g><path d="M 0.984375 0 L 0.984375 -22.265625 L 5.578125 -22.265625 L 7.625 -11.609375 L 7.625 -22.265625 L 11.921875 -22.265625 L 11.921875 0 L 7.5625 0 L 5.34375 -11.140625 L 5.34375 0 Z M 0.984375 0 "/></g></g></g><g fill="#db4a2b" fill-opacity="1"><g transform="translate(76.969066, 25.713858)"><g><path d="M 0.78125 0 L 0.78125 -22.265625 L 5.078125 -22.265625 L 5.078125 0 Z M 0.78125 0 "/></g></g></g><g fill="#2b2b2b" fill-opacity="1"><g transform="translate(82.854903, 25.713858)"><g><path d="M 0.984375 0 L 0.984375 -22.265625 L 9.90625 -22.265625 L 9.90625 -17.96875 L 5.515625 -17.96875 L 5.515625 -13.640625 L 9.71875 -13.640625 L 9.71875 -9.4375 L 5.515625 -9.4375 L 5.515625 -4.328125 L 10.1875 -4.328125 L 10.1875 0 Z M 0.984375 0 "/></g></g></g></svg>