<svg xmlns="http://www.w3.org/2000/svg" xmlns:xlink="http://www.w3.org/1999/xlink" width="147" zoomAndPan="magnify" viewBox="0 0 110.25 30.000001" height="40" preserveAspectRatio="xMidYMid meet" version="1.0"><defs><g/><clipPath id="ffde6cd8a9"><path d="M 22.96875 10.382812 L 33.890625 10.382812 L 33.890625 25.953125 L 22.96875 25.953125 Z M 22.96875 10.382812 " clip-rule="nonzero"/></clipPath><clipPath id="9de59478de"><path d="M 23.375 10.382812 L 33.484375 10.382812 C 33.589844 10.382812 33.695312 10.425781 33.769531 10.503906 C 33.847656 10.578125 33.890625 10.683594 33.890625 10.789062 L 33.890625 25.542969 C 33.890625 25.652344 33.847656 25.753906 33.769531 25.832031 C 33.695312 25.90625 33.589844 25.949219 33.484375 25.949219 L 23.375 25.949219 C 23.265625 25.949219 23.164062 25.90625 23.085938 25.832031 C 23.011719 25.753906 22.96875 25.652344 22.96875 25.542969 L 22.96875 10.789062 C 22.96875 10.683594 23.011719 10.578125 23.085938 10.503906 C 23.164062 10.425781 23.265625 10.382812 23.375 10.382812 Z M 23.375 10.382812 " clip-rule="nonzero"/></clipPath><clipPath id="605f97331d"><path d="M 26 9 L 32 9 L 32 10.160156 L 26 10.160156 Z M 26 9 " clip-rule="nonzero"/></clipPath><clipPath id="c354e0a52c"><path d="M 28 2.179688 L 30 2.179688 L 30 3 L 28 3 Z M 28 2.179688 " clip-rule="nonzero"/></clipPath><clipPath id="f5348f91cd"><path d="M 22 4 L 35.324219 4 L 35.324219 10 L 22 10 Z M 22 4 " clip-rule="nonzero"/></clipPath></defs><g fill="#2b2b2b" fill-opacity="1"><g transform="translate(34.571698, 25.949597)"><g><path d="M 5.578125 0.203125 C 3.960938 0.203125 2.757812 -0.359375 1.96875 -1.484375 C 1.1875 -2.617188 0.796875 -4.335938 0.796875 -6.640625 L 0.796875 -16.234375 C 0.796875 -18.285156 1.253906 -19.835938 2.171875 -20.890625 C 3.085938 -21.941406 4.453125 -22.46875 6.265625 -22.46875 C 7.734375 -22.46875 8.875 -22.175781 9.6875 -21.59375 C 10.5 -21.007812 11.0625 -20.15625 11.375 -19.03125 C 11.6875 -17.90625 11.84375 -16.460938 11.84375 -14.703125 L 7.484375 -14.703125 L 7.484375 -16.6875 C 7.484375 -17.226562 7.410156 -17.644531 7.265625 -17.9375 C 7.117188 -18.226562 6.859375 -18.375 6.484375 -18.375 C 5.628906 -18.375 5.203125 -17.820312 5.203125 -16.71875 L 5.203125 -5.9375 C 5.203125 -5.257812 5.289062 -4.75 5.46875 -4.40625 C 5.644531 -4.0625 5.945312 -3.890625 6.375 -3.890625 C 6.8125 -3.890625 7.113281 -4.0625 7.28125 -4.40625 C 7.457031 -4.75 7.546875 -5.257812 7.546875 -5.9375 L 7.546875 -9.125 L 6.34375 -9.125 L 6.34375 -12.953125 L 11.796875 -12.953125 L 11.796875 0 L 10 0 L 9.25 -1.859375 C 8.457031 -0.484375 7.234375 0.203125 5.578125 0.203125 Z M 5.578125 0.203125 "/></g></g></g><g fill="#2b2b2b" fill-opacity="1"><g transform="translate(47.144476, 25.949597)"><g><path d="M 0.984375 0 L 0.984375 -22.265625 L 9.90625 -22.265625 L 9.90625 -17.96875 L 5.515625 -17.96875 L 5.515625 -13.640625 L 9.71875 -13.640625 L 9.71875 -9.4375 L 5.515625 -9.4375 L 5.515625 -4.328125 L 10.1875 -4.328125 L 10.1875 0 Z M 0.984375 0 "/></g></g></g><g fill="#2b2b2b" fill-opacity="1"><g transform="translate(57.824856, 25.949597)"><g><path d="M 0.984375 0 L 0.984375 -22.265625 L 5.578125 -22.265625 L 7.625 -11.609375 L 7.625 -22.265625 L 11.921875 -22.265625 L 11.921875 0 L 7.5625 0 L 5.34375 -11.140625 L 5.34375 0 Z M 0.984375 0 "/></g></g></g><g fill="#db4a2b" fill-opacity="1"><g transform="translate(70.73636, 25.949597)"><g><path d="M 0.78125 0 L 0.78125 -22.265625 L 5.078125 -22.265625 L 5.078125 0 Z M 0.78125 0 "/></g></g></g><g fill="#2b2b2b" fill-opacity="1"><g transform="translate(76.622732, 25.949597)"><g><path d="M 0.984375 0 L 0.984375 -22.265625 L 9.90625 -22.265625 L 9.90625 -17.96875 L 5.515625 -17.96875 L 5.515625 -13.640625 L 9.71875 -13.640625 L 9.71875 -9.4375 L 5.515625 -9.4375 L 5.515625 -4.328125 L 10.1875 -4.328125 L 10.1875 0 Z M 0.984375 0 "/></g></g></g><g clip-path="url(#ffde6cd8a9)"><g clip-path="url(#9de59478de)"><path fill="#db4a2b" d="M 22.96875 10.382812 L 33.890625 10.382812 L 33.890625 25.953125 L 22.96875 25.953125 Z M 22.96875 10.382812 " fill-opacity="1" fill-rule="nonzero"/></g></g><path fill="#db4a2b" d="M 28.746094 9.070312 C 29.136719 9.070312 29.484375 9.007812 29.800781 8.898438 L 27.71875 8.976562 C 27.96875 9.027344 28.273438 9.058594 28.644531 9.070312 C 28.679688 9.070312 28.714844 9.070312 28.746094 9.070312 Z M 28.746094 9.070312 " fill-opacity="1" fill-rule="nonzero"/><g clip-path="url(#605f97331d)"><path fill="#db4a2b" d="M 30.125 9.242188 C 29.71875 9.40625 29.265625 9.507812 28.746094 9.507812 C 28.710938 9.507812 28.671875 9.503906 28.632812 9.503906 C 28.128906 9.492188 27.714844 9.4375 27.371094 9.335938 C 27.128906 9.53125 26.859375 9.671875 26.710938 9.785156 C 26.484375 9.957031 26.519531 10.183594 27.390625 10.148438 C 28.261719 10.113281 31.257812 10.378906 31.121094 10.027344 C 31.058594 9.867188 30.503906 9.542969 30.125 9.242188 Z M 30.125 9.242188 " fill-opacity="1" fill-rule="nonzero"/></g><path fill="#db4a2b" d="M 28.769531 5.175781 C 29.554688 5.175781 30.335938 5.089844 31.085938 4.917969 C 29.855469 3.632812 27.570312 4.265625 27.234375 4.347656 C 26.984375 4.40625 26.65625 4.667969 26.417969 4.949219 C 27.113281 5.074219 27.898438 5.175781 28.769531 5.175781 Z M 28.769531 5.175781 " fill-opacity="1" fill-rule="nonzero"/><path fill="#db4a2b" d="M 28.878906 3.683594 C 29.238281 3.683594 29.574219 3.71875 29.882812 3.792969 C 29.703125 3.527344 29.4375 3.257812 29.03125 3.214844 C 28.414062 3.148438 27.859375 3.503906 27.554688 3.828125 C 27.882812 3.757812 28.355469 3.683594 28.878906 3.683594 Z M 28.878906 3.683594 " fill-opacity="1" fill-rule="nonzero"/><g clip-path="url(#c354e0a52c)"><path fill="#db4a2b" d="M 28.882812 2.769531 C 28.945312 2.769531 29.011719 2.773438 29.074219 2.78125 C 29.144531 2.789062 29.214844 2.800781 29.28125 2.816406 C 29.386719 2.5 29.347656 2.226562 28.773438 2.203125 C 28.246094 2.179688 28.332031 2.566406 28.445312 2.820312 C 28.582031 2.789062 28.726562 2.769531 28.882812 2.769531 Z M 28.882812 2.769531 " fill-opacity="1" fill-rule="nonzero"/></g><g clip-path="url(#f5348f91cd)"><path fill="#db4a2b" d="M 35.457031 5.339844 C 35.433594 5.128906 33.910156 4.710938 31.191406 5.339844 C 28.472656 5.96875 26.242188 5.355469 24.828125 5.0625 C 23.417969 4.765625 23.886719 4.066406 22.71875 4.46875 C 21.554688 4.867188 22.074219 6.125 22.597656 6.90625 C 23.121094 7.691406 24.429688 6.453125 24.566406 6.507812 C 24.898438 6.632812 25.578125 7.378906 26.136719 7.867188 C 26.695312 8.355469 26.730469 9.015625 28.644531 9.070312 C 30.5625 9.121094 31.46875 7.675781 32.757812 6.507812 C 34.050781 5.339844 35.476562 5.546875 35.457031 5.339844 Z M 23.070312 6.226562 C 22.851562 6.03125 22.640625 5.703125 22.863281 5.339844 C 23.0625 5.019531 23.65625 5.09375 23.8125 5.527344 C 23.96875 5.957031 23.40625 6.53125 23.070312 6.226562 Z M 23.070312 6.226562 " fill-opacity="1" fill-rule="nonzero"/></g><g fill="#F3F2ED" fill-opacity="1"><g transform="translate(31.957938, 22.523637)"><g><path d="M 0 -0.34375 L -7.828125 -0.34375 L -7.828125 -1.890625 L -4.6875 -1.890625 L -7.828125 -2.625 L -7.828125 -4.203125 L -4.25 -3.328125 L 0 -4.375 L 0 -2.765625 L -3.796875 -1.90625 L 0 -1.90625 Z M 0 -0.34375 "/></g></g></g><g fill="#F3F2ED" fill-opacity="1"><g transform="translate(31.957938, 18.225601)"><g><path d="M 0.078125 -2.21875 C 0.078125 -1.582031 -0.113281 -1.097656 -0.5 -0.765625 C -0.882812 -0.441406 -1.425781 -0.28125 -2.125 -0.28125 L -5.859375 -0.28125 C -6.535156 -0.28125 -7.039062 -0.441406 -7.375 -0.765625 C -7.71875 -1.097656 -7.890625 -1.582031 -7.890625 -2.21875 C -7.890625 -2.84375 -7.71875 -3.316406 -7.375 -3.640625 C -7.039062 -3.972656 -6.535156 -4.140625 -5.859375 -4.140625 L -2.125 -4.140625 C -1.425781 -4.140625 -0.882812 -3.972656 -0.5 -3.640625 C -0.113281 -3.316406 0.078125 -2.84375 0.078125 -2.21875 Z M -1.359375 -2.21875 C -1.359375 -2.351562 -1.421875 -2.441406 -1.546875 -2.484375 C -1.671875 -2.535156 -1.84375 -2.5625 -2.0625 -2.5625 L -5.890625 -2.5625 C -6.054688 -2.5625 -6.191406 -2.539062 -6.296875 -2.5 C -6.398438 -2.457031 -6.453125 -2.363281 -6.453125 -2.21875 C -6.453125 -1.957031 -6.253906 -1.828125 -5.859375 -1.828125 L -2.046875 -1.828125 C -1.828125 -1.828125 -1.65625 -1.851562 -1.53125 -1.90625 C -1.414062 -1.96875 -1.359375 -2.070312 -1.359375 -2.21875 Z M -1.359375 -2.21875 "/></g></g></g></svg>